<svg xmlns="http://www.w3.org/2000/svg" viewBox="0 0 38 38" fill="#ffffff">
  <path d="M11.466 21.105H3.553.001l2.673 2.339 15.448 13.517.879.769.879-.769 15.448-13.517 2.673-2.339h-3.552-7.909a7.68 7.68 0 0 1-1.165 2.669h5.521L19 34.183 7.105 23.774h5.527a7.69 7.69 0 0 1-1.165-2.669zm8.965-17.687V0l2.316 2.513 12.965 14.069 2.063 2.239H34.73h-8.021a7.68 7.68 0 0 0-.697-2.669h5.673L23.1 6.835v6.023a7.68 7.68 0 0 0-2.669-1.041V3.418zm-2.852 0V0l-2.316 2.513L2.298 16.582.234 18.821h3.045 8.022a7.68 7.68 0 0 1 .697-2.669H6.324l8.586-9.316v6.024a7.67 7.67 0 0 1 2.669-1.042v-8.4z" fill-rule="evenodd"/>
  <circle cx="19.003" cy="19.413" stroke="#ffffff" stroke-width="2.669" r="5.517" fill="none"/>
</svg>
