<svg xmlns="http://www.w3.org/2000/svg" viewBox="0 0 50 38" fill="#ffffff">
  <path d="M46.44 21.305c-.273-1.941-.939-3.782-1.98-5.472-.908-1.474-2.072-2.785-3.463-3.899l.004-.004L26.399.608a.41.41 0 0 0-.033-.026C25.881.207 25.224 0 24.516 0s-1.391.207-1.922.583c-.571.403-.897.937-.92 1.505-.021.531.23 1.041.708 1.439l2.816 2.279 2.785 2.255-17.884-.012c-2.045 0-3.438.97-3.724 2.593-.126.711.096 1.493.593 2.092.527.635 1.292.985 2.154.985l1.363.001 5.664-.009 1.802-.004L1.719 25.83l-.064.048c-.907.702-1.5 1.685-1.628 2.698-.097.768.08 1.469.513 2.029.516.668 1.321 1.035 2.268 1.035.93 0 1.879-.356 2.674-1.004l8.765-7.242-.078 1.249c.01.596.199 1.793.499 2.764.62 1.996 1.665 3.822 3.105 5.426 1.498 1.669 3.323 2.992 5.423 3.931 2.22.991 4.607 1.495 7.095 1.495h.023c2.495-.006 4.89-.517 7.117-1.52 2.104-.951 3.928-2.279 5.42-3.948 1.438-1.612 2.481-3.441 3.1-5.436a14.02 14.02 0 0 0 .585-3.037c.076-.997.044-2.011-.096-3.014zm-15.967 9.566c-5.482 0-9.927-4.015-9.927-8.967s4.445-8.967 9.927-8.967 9.927 4.015 9.927 8.967-4.445 8.967-9.926 8.967zm5.725-9.755c.081 1.478-.504 2.851-1.531 3.867-1.045 1.035-2.535 1.685-4.202 1.685s-3.157-.65-4.202-1.685c-1.027-1.016-1.61-2.388-1.53-3.866.079-1.436.773-2.703 1.817-3.601 1.027-.883 2.407-1.421 3.914-1.421s2.887.538 3.914 1.421c1.045.897 1.739 2.164 1.819 3.599z"/>
</svg>
