<svg xmlns="http://www.w3.org/2000/svg" viewBox="0 0 43 44" fill="#ffffff">
  <path d="M31.341 43.058h0l.656-.437c2.294-1.392 4.793-3.817 6.678-6.361 1.639-2.425 2.827-5.208 3.605-7.952.983-3.618 1.106-7.196.451-10.297-.451-2.028-1.762-4.572-3.278-6.679-2.622-3.499-5.899-6.242-9.832-8.151-1.516-.755-3.073-1.272-5.695-2.028C21.099.398 19.009.08 16.51 0c-1.434 0-2.499 0-3.728.199C8.521.835 4.384 2.743.655 5.805L0 6.401V13.2l1.311-.755a29.47 29.47 0 0 1 4.793-3.817C8.931 6.6 10.898 5.884 13.97 5.566c.328-.119 2.622-.119 3.155 0 1.967.199 5.039.755 6.35 1.153 2.745.954 5.49 2.863 7.661 5.288 2.171 2.545 3.482 5.089 4.056 7.753.328 1.71.451 2.425.451 4.453 0 1.59 0 1.789-.123 2.544-.328 1.789-.778 3.061-1.516 4.652-.983 1.908-2.417 3.697-4.261 5.526a10.93 10.93 0 0 1-2.827 2.028c-1.843.954-3.933 1.392-6.432 1.392-1.844 0-3.277-.199-4.916-.636-1.762-.517-2.827-1.073-4.466-2.227-3.81-2.743-5.367-5.089-5.449-8.707-.123-2.425.451-4.572 1.516-6.361 1.434-2.107 3.728-3.817 6.432-4.652 3.605-1.073 7.538 0 9.3 2.664.656 1.073.983 2.226.86 3.379-.328 2.226-2.294 4.453-4.384 4.89-.983.119-1.762 0-2.499-.755-.86-.835-1.434-2.028-1.434-2.863 0-.517.328-1.272.656-1.789 0-.119.123-.199.123-.199-.123 0-1.188.318-1.516.437-2.089.636-3.277 1.789-3.81 3.38-.205.517-.205 1.71-.123 2.346.123 1.073.778 2.545 1.434 3.38a6.93 6.93 0 0 0 3.4 2.425c.86.199 1.311.318 2.294.318 1.434.119 2.417-.119 3.81-.517 2.95-.954 5.572-3.061 7.005-5.527.86-1.392 1.516-3.499 1.762-5.288.123-.755.123-2.346 0-2.982-.451-3.459-2.417-6.083-5.899-8.111-1.843-1.073-4.916-2.107-7.006-2.425-4.138-.636-8.194.636-11.799 3.499-.655.517-2.171 2.028-2.745 2.664-.983 1.153-1.844 2.544-2.622 3.936L0 21.43v13.041a1.58 1.58 0 0 0 .328.517c1.639 2.863 5.039 6.043 8.398 7.952l.451.199h22.041c.041 0 .082-.04.123-.08z"/>
</svg>
