<svg xmlns="http://www.w3.org/2000/svg" viewBox="0 0 42 40" fill="#ffffff">
  <path d="M28.196 1.119H40.29l-16.167 29.85s-2.722-7.91-3.894-10.729"/>
  <path d="M31.178 38.029h9.107V1.119c-.006 19.289-8.116 36.911-9.107 36.911zm-7.056-7.059h-7.517L0 1.12C2.948.74 8.824.238 11.739 0l12.383 30.97zM9.628 19.195C7.138 29.042-.006 38.329 0 38.323c8.277 0 10.059-1.203 10.059-1.834V19.942c-.148-.245-.283-.495-.431-.747z"/>
  <path d="M0 1.119v37.194c4.531-7.478 7.17-12.376 9.5-19.353C3.746 8.784 0 1.119 0 1.119zm30.549 35.445l.624 1.461V18.639l-.624 1.049"/>
  <path d="M31.143 18.683v19.282l.026.065c.65 0 9.107-20.866 9.107-36.911 0 0-5.162 10.767-9.133 17.564z"/>
</svg>
