<svg xmlns="http://www.w3.org/2000/svg" viewBox="0 0 45 45" fill="#ffffff">
  <path fill-rule="evenodd" d="M40.249 12.85l1.291 5.082-2.577 4.634 2.576 4.642-2.434 9.584-2.119 8.343-16.992-4.802-1.421-2.632-1.098-2.034h-5.05l-6.25-6.597L0 22.552 12.4 9.47h5.072l1.075-1.989 1.447-2.677 2.419-.684L36.984 0l3.265 12.85zM19.548 9.805l-1.651.448-9.268 9.988.074.097h14.715l7.346-13.424.027-.048-.074-.088-11.168 3.028zm9.414 28.078l1.299.352a4.16 4.16 0 0 0 .331.068l.242.045-3.533-6.456-3.874-7.077H8.581l.083.116.089.116 1.482 1.596 7.437 7.994c.149.16.372.277.578.334l10.711 2.913zm6.536-5.445l2.468-9.294c.105-.387.112-.738.009-1.125l-1.671-6.306-.834-3.156-.683-2.558-.274-1.023-.986 1.8-6.458 11.792 3.262 5.958 4.173 7.623.068-.236.094-.331.832-3.142z"/>
</svg>
