<svg xmlns="http://www.w3.org/2000/svg" viewBox="0 0 50 50" fill="#ffffff">
  <path d="M24.455.021c.052-.043-.093.014-.158.034l-.163.044-1.516.455c-2.526.814-4.924 1.972-7.124 3.441-2.992 1.981-5.971 4.656-9.31 8.348-2.274 2.518-3.928 5.086-4.961 7.705-.946 2.397-1.37 4.874-1.179 6.873.015.153.036.322.046.37l.004.016c.005.023.037.025.045.003.1-.251.616-1.222.946-1.795a37.18 37.18 0 0 1 5.266-7.008c1.536-1.626 2.76-2.607 3.948-3.179.749-.358 1.438-.516 1.976-.452.508.062.821.207 1.142.526a1.69 1.69 0 0 1 .458.756c.039.127.059.259.06.391l.008 8.187-.018 8.641c-.016.266-.087.527-.207.766-.319.661-1.067.975-2.111.886a6.75 6.75 0 0 1-1.179-.23c-.101-.031-.156-.039-.145-.021s.075.107.145.207c.726.996 1.873 2.122 3.06 2.992 3.139 2.313 7.841 4.021 12.866 4.68l.416.054a.41.41 0 0 0 .349-.124l.813-.85 2.756-2.883 1.464-1.506c.013 0 .324.245.687.549l2.681 2.231 1.464 1.222c.034.026.107-.01.402-.189 1.453-.884 2.823-1.895 4.093-3.02.526-.46 2.01-1.925 2.502-2.477a38.1 38.1 0 0 0 3.875-5.068c.704-1.09 1.513-2.522 1.886-3.319.024-.052-.041-.098-.082-.058l-.518.507c-1.368 1.332-2.375 2.17-3.494 2.888-1.858 1.2-3.404 1.585-4.573 1.141a2.1 2.1 0 0 1-.704-.45c-.075-.081-.119-.186-.126-.296l-.007-.121c-.052-.873-.101-2.768-.163-6.216-.054-3.079-.062-10.567-.013-11.846.041-1.108.077-1.703.122-2.022.036-.258.041-.268.254-.625.56-.939 1.262-1.95 2.321-3.337a115.23 115.23 0 0 1 3.51-4.343l.246-.291c.039-.046.036-.049-.075-.031-.567.084-2.029.462-2.992.774-3.878 1.248-7.671 3.544-10.287 6.219l-.282.288a.18.18 0 0 1-.231.021c-.744-.521-2.225-.848-3.733-.824l-.292.005c-.059.001-.079.078-.03.108.531.335 1.096.911 1.544 1.585a6.35 6.35 0 0 1 .933 2.158c.048.209.072.422.073.636l.005 8.677.008 8.579c0 .265-.122.515-.331.678-1.503 1.177-2.998 1.968-4.189 2.221-1.091.23-2.111-.01-2.927-.694-.361-.32-.658-.702-.879-1.128a.84.84 0 0 1-.094-.385V20.51l-.018-10.778c-.531.265-.726.327-1.073.327-.365.013-.717-.136-.959-.406-.295-.297-.471-.638-.622-1.225-.117-.447-.156-.793-.171-1.509-.015-.753.015-1.065.158-1.614a6.61 6.61 0 0 1 1.02-2.152c.733-1.054 1.866-2.132 3.075-2.923a6.24 6.24 0 0 0 .311-.209z"/>
</svg>
